<svg width="130" height="28" viewBox="0 0 130 28" fill="none" xmlns="http://www.w3.org/2000/svg">
<path d="M0.6 27V0.599998H5.784V27H0.6ZM11.3023 27V10.616H16.2143V12.44C16.8436 11.736 17.6276 11.1707 18.5663 10.744C19.5156 10.3173 20.5609 10.104 21.7023 10.104C22.9609 10.104 24.0649 10.3813 25.0143 10.936C25.9743 11.48 26.7263 12.2427 27.2703 13.224C27.8143 14.1947 28.0863 15.3307 28.0863 16.632V27H23.1743V17.672C23.1743 16.4987 22.8649 15.5867 22.2463 14.936C21.6383 14.2747 20.8009 13.944 19.7343 13.944C19.0089 13.944 18.3796 14.0933 17.8463 14.392C17.3236 14.68 16.9183 15.08 16.6302 15.592C16.3529 16.0933 16.2143 16.664 16.2143 17.304V27H11.3023ZM38.0563 27L29.4482 10.616H35.2403L39.7043 20.504L44.1683 10.616H49.9603L41.3363 27H38.0563ZM59.7123 27.512C57.9096 27.512 56.2829 27.144 54.8323 26.408C53.3816 25.6613 52.2296 24.6373 51.3763 23.336C50.5229 22.024 50.0963 20.5147 50.0963 18.808C50.0963 17.1013 50.5176 15.5973 51.3603 14.296C52.2136 12.984 53.3656 11.96 54.8163 11.224C56.2776 10.4773 57.9096 10.104 59.7123 10.104C61.5256 10.104 63.1576 10.4773 64.6083 11.224C66.0589 11.96 67.2056 12.984 68.0483 14.296C68.9016 15.5973 69.3283 17.1013 69.3283 18.808C69.3283 20.5147 68.9016 22.024 68.0483 23.336C67.2056 24.6373 66.0589 25.6613 64.6083 26.408C63.1576 27.144 61.5256 27.512 59.7123 27.512ZM59.7283 23.32C60.5603 23.32 61.3176 23.128 62.0003 22.744C62.6829 22.36 63.2216 21.832 63.6163 21.16C64.0109 20.4773 64.2083 19.6933 64.2083 18.808C64.2083 17.9227 64.0109 17.144 63.6163 16.472C63.2216 15.7893 62.6829 15.256 62.0003 14.872C61.3176 14.488 60.5603 14.296 59.7283 14.296C58.8856 14.296 58.1229 14.488 57.4403 14.872C56.7683 15.256 56.2349 15.7893 55.8403 16.472C55.4456 17.144 55.2483 17.9227 55.2483 18.808C55.2483 19.6933 55.4456 20.4773 55.8403 21.16C56.2349 21.832 56.7683 22.36 57.4403 22.744C58.1229 23.128 58.8856 23.32 59.7283 23.32ZM72.5988 27V10.616H77.5108V27H72.5988ZM75.0628 7.208C74.5294 7.208 74.0388 7.08 73.5908 6.824C73.1534 6.55733 72.8014 6.2 72.5348 5.752C72.2681 5.304 72.1348 4.81333 72.1348 4.28C72.1348 3.74667 72.2681 3.26133 72.5348 2.824C72.8014 2.38667 73.1534 2.04 73.5908 1.784C74.0388 1.51733 74.5294 1.384 75.0628 1.384C75.5961 1.384 76.0814 1.51733 76.5188 1.784C76.9561 2.04 77.3028 2.38667 77.5588 2.824C77.8254 3.26133 77.9588 3.74667 77.9588 4.28C77.9588 4.81333 77.8254 5.304 77.5588 5.752C77.3028 6.2 76.9561 6.55733 76.5188 6.824C76.0814 7.08 75.5961 7.208 75.0628 7.208ZM89.9663 27.512C88.7183 27.512 87.5396 27.288 86.4303 26.84C85.3316 26.392 84.3609 25.7733 83.5182 24.984C82.6756 24.184 82.0143 23.2613 81.5343 22.216C81.0543 21.16 80.8143 20.0293 80.8143 18.824C80.8143 17.6613 81.0383 16.5573 81.4863 15.512C81.9449 14.4667 82.5849 13.5387 83.4062 12.728C84.2383 11.9173 85.2089 11.2773 86.3183 10.808C87.4383 10.3387 88.6489 10.104 89.9503 10.104C91.0063 10.104 92.0196 10.2533 92.9903 10.552C93.9716 10.8507 94.7609 11.2347 95.3583 11.704L93.6783 15.016C92.8783 14.4293 91.8863 14.136 90.7023 14.136C89.6889 14.136 88.8303 14.36 88.1263 14.808C87.4223 15.256 86.8836 15.8373 86.5103 16.552C86.1476 17.2667 85.9663 18.0187 85.9663 18.808C85.9663 19.672 86.1636 20.4613 86.5583 21.176C86.9529 21.88 87.5076 22.44 88.2222 22.856C88.9476 23.272 89.7849 23.48 90.7343 23.48C91.3209 23.48 91.8703 23.4 92.3823 23.24C92.8943 23.08 93.3263 22.8667 93.6783 22.6L95.3583 25.912C94.7503 26.3707 93.9663 26.7493 93.0063 27.048C92.0463 27.3573 91.0329 27.512 89.9663 27.512ZM106.206 27.512C104.435 27.512 102.846 27.1333 101.438 26.376C100.04 25.608 98.9308 24.568 98.1095 23.256C97.2882 21.944 96.8775 20.4613 96.8775 18.808C96.8775 17.592 97.1068 16.456 97.5655 15.4C98.0348 14.344 98.6855 13.4213 99.5175 12.632C100.35 11.832 101.315 11.2133 102.414 10.776C103.512 10.328 104.702 10.104 105.982 10.104C107.688 10.104 109.182 10.4613 110.462 11.176C111.752 11.88 112.755 12.8613 113.47 14.12C114.195 15.3787 114.558 16.8453 114.558 18.52C114.558 18.6587 114.552 18.7813 114.542 18.888C114.542 18.984 114.526 19.1707 114.494 19.448H101.934C101.934 20.28 102.12 21.0053 102.494 21.624C102.878 22.2427 103.411 22.728 104.094 23.08C104.776 23.4213 105.571 23.592 106.478 23.592C107.331 23.592 108.083 23.4267 108.734 23.096C109.395 22.7653 110.03 22.2373 110.638 21.512L114.174 23.288C113.406 24.6107 112.318 25.6453 110.91 26.392C109.502 27.1387 107.934 27.512 106.206 27.512ZM102.11 16.728H109.726C109.619 16.0987 109.39 15.5547 109.038 15.096C108.696 14.6373 108.259 14.2853 107.726 14.04C107.192 13.7947 106.59 13.672 105.918 13.672C105.203 13.672 104.573 13.7947 104.03 14.04C103.486 14.2853 103.048 14.6373 102.718 15.096C102.387 15.5547 102.184 16.0987 102.11 16.728ZM122.505 27.512C121.118 27.512 119.875 27.2933 118.777 26.856C117.689 26.4187 116.782 25.7787 116.057 24.936L118.121 21.64C118.803 22.3653 119.518 22.92 120.265 23.304C121.011 23.688 121.758 23.88 122.505 23.88C122.921 23.88 123.278 23.8107 123.577 23.672C123.886 23.5333 124.126 23.336 124.297 23.08C124.478 22.8133 124.569 22.4933 124.569 22.12C124.569 21.6933 124.446 21.3573 124.201 21.112C123.966 20.8667 123.603 20.6427 123.113 20.44C122.622 20.2267 121.987 19.96 121.209 19.64C120.547 19.3627 119.913 19.048 119.305 18.696C118.697 18.344 118.201 17.896 117.817 17.352C117.443 16.808 117.257 16.12 117.257 15.288C117.257 14.2747 117.539 13.384 118.105 12.616C118.67 11.8373 119.449 11.2293 120.441 10.792C121.443 10.3547 122.595 10.136 123.897 10.136C124.707 10.136 125.555 10.2587 126.441 10.504C127.337 10.7493 128.291 11.1227 129.305 11.624L127.625 14.776C126.249 13.8907 125.017 13.448 123.929 13.448C123.321 13.448 122.835 13.5813 122.473 13.848C122.11 14.1147 121.929 14.4507 121.929 14.856C121.929 15.24 122.115 15.576 122.489 15.864C122.873 16.1413 123.337 16.392 123.881 16.616C124.435 16.8293 124.963 17.0267 125.465 17.208C126.286 17.5067 127.011 17.8373 127.641 18.2C128.281 18.5627 128.782 19.0373 129.145 19.624C129.507 20.2 129.689 20.9733 129.689 21.944C129.689 23.128 129.401 24.136 128.825 24.968C128.259 25.7893 127.438 26.4187 126.361 26.856C125.294 27.2933 124.009 27.512 122.505 27.512Z" fill="#0C0E16"/>
</svg>
